<?xml version="1.0" encoding="utf-8"?>
<svg xmlns="http://www.w3.org/2000/svg" xmlns:xlink="http://www.w3.org/1999/xlink" version= "1.1" width="4607px" height="4602px" viewBox="-1742 -1147 4607 4602">
<g id="layer1">
<g style="fill:rgb(254,254,254); fill-opacity:1.0; stroke-linejoin: miter">
<path d="M1636.862,-933.57446C1615.1146,-933.57446,1593.3917,-933.47437,1571.5751,-933.37213C1571.5557,-933.37256,1571.5363,-933.3728,1571.5168,-933.3728C1571.5111,-933.3728,1571.5055,-933.3728,1571.4998,-933.37274L1571.0084,-933.36957C1570.9896,-933.36993,1570.971,-933.3701,1570.9521,-933.3701L1570.9414,-933.36914L-403.84793,-925.0808L-403.92834,-925.08105L-403.92114,-925.081L-405.96793,-925.09204L-405.972,-925.09106C-405.99564,-925.09283,-406.01935,-925.0933,-406.04312,-925.09344C-429.68527,-925.2353,-453.74002,-925.374,-477.30106,-925.374L-477.42044,-925.37305C-477.44427,-925.3747,-477.46814,-925.375,-477.492,-925.375C-622.003,-925.3749,-763.5111,-920.2261,-890.2265,-880.11847C-1038.3285,-833.24146,-1166.7681,-738.39905,-1259.6085,-633.50446C-1352.3732,-528.69604,-1409.4283,-414.0332,-1438.5641,-298.76727C-1467.7201,-183.42108,-1468.979,-67.32546,-1470.2106,49.64966L-1470.211,49.650658C-1470.2112,49.65827,-1470.2112,49.66689,-1470.2112,49.675518L-1470.8273,2204.1724C-1470.8273,2204.279,-1470.8209,2204.3848,-1470.8083,2204.4888L-1470.823,2204.4897C-1468.6375,2387.7217,-1466.2946,2569.0562,-1377.2909,2733.8337C-1288.1237,2898.9136,-1111.6106,3047.918,-944.6792,3120.086C-818.7455,3174.5295,-698.173,3185.271,-578.32086,3185.2725L-578.2642,3185.2715L-578.27,3185.2725C-539.6556,3185.271,-501.11472,3184.155,-462.51593,3183.0361C-462.49396,3183.0354,-462.472,3183.0347,-462.45007,3183.0334L-462.45468,3183.0344L-462.20944,3183.0293L1717.2036,3182.0835C1717.237,3182.0835,1717.2705,3182.0828,1717.3038,3182.0815L1717.2955,3182.0825L1717.6248,3182.072L1717.6221,3182.073C1870.1729,3177.8193,2021.1294,3173.4517,2170.5034,3096.4158C2320.3,3019.163,2468.8276,2868.6208,2545.7012,2724.3616C2622.2554,2580.7014,2627.866,2443.0894,2633.3337,2304.0151L2633.3074,2304.016C2633.3394,2303.853,2633.3562,2303.686,2633.357,2303.5156L2640.7288,283.86432L2640.7285,283.88184L2640.7295,283.78036L2640.7297,283.78137C2643.8323,98.01041,2646.8938,-86.8418,2619.3245,-236.01353L2619.3245,-236.01352C2591.8342,-384.76196,2533.8425,-498.08102,2442.9287,-608.92236C2351.852,-719.9624,2228.234,-827.90125,2078.0393,-881.3905C1946.2051,-928.34076,1793.364,-933.5742,1636.862,-933.57446 Z M866.5149,11.911878C866.5149,11.911878,866.5149,11.911878,866.5149,11.911878L866.5149,11.912878 Z M866.5149,11.911878C866.5149,11.911878,866.5149,11.911878,866.5149,11.911878L866.5149,11.912878 Z M866.5149,11.911878C866.5149,11.911878,866.5149,11.911878,866.5149,11.911878L866.5149,11.912878 Z M-540.8277,-78.99375C-497.45575,-78.99375,-450.62848,-75.21066,-404.3014,-71.46642L-403.5567,-71.406235C-403.48608,-71.40053,-403.41556,-71.397705,-403.34528,-71.397705C-403.31876,-71.397705,-403.2923,-71.3981,-403.26587,-71.3989L-403.2699,-71.3979L518.07666,-73.88105C518.116,-73.88116,518.1554,-73.88215,518.19476,-73.884026L518.1896,-73.883026L519.48627,-73.91496L520.83575,-73.94717C552.47107,-74.70187,584.28436,-75.45056,614.9775,-75.45056C676.1925,-75.45056,732.6679,-72.466324,774.1825,-60.738907C824.84937,-46.426018,854.26324,-18.903484,866.5149,11.911878L866.5149,11.911873C869.6702,19.84824,871.6622,27.948418,872.58746,36.022026L872.5875,36.022125C876.9918,74.439026,857.0339,111.68309,838.22833,146.60515L838.2283,146.60527L837.4816,147.99199L837.3832,148.16911L489.972,754.6206L489.97174,754.6216C489.96744,754.6282,489.96313,754.63574,489.9589,754.6433C470.4641,789.47375,452.25928,822.28644,449.94617,844.73975C449.9408,844.792,449.93698,844.8444,449.93475,844.8969L449.93024,844.8979C449.2575,851.63403,450.08615,857.17035,451.80978,861.50604L451.80984,861.50616C455.26178,870.1881,462.72443,875.0617,472.0565,875.0617C472.4284,875.0617,472.80923,875.0539,473.18637,875.0383C488.9294,874.3896,509.10068,860.626,531.79175,844.74896L531.78644,844.74994C531.8775,844.69354,531.96533,844.63245,532.04944,844.5659L1478.8424,95.66575L1478.8433,95.66675C1478.8557,95.655945,1478.868,95.646034,1478.8802,95.636L1480.5675,94.2528L1480.5674,94.25284L1482.2559,92.86869L1482.256,92.868675C1570.4668,20.55571,1660.1964,-52.67049,1733.022,-72.052086L1733.022,-72.05209C1747.3335,-75.86097,1760.9548,-77.6057,1773.8446,-77.6057C1829.0465,-77.6057,1871.3828,-45.561527,1897.1156,-5.1374497L1897.1156,-5.137455C1903.1506,4.3430777,1908.3066,14.324928,1912.4297,24.695318L1912.4297,24.695333C1930.0125,68.91909,1928.6908,119.95249,1897.4829,168.7602C1859.7401,227.78793,1778.0574,283.41772,1697.9352,337.92538L1697.9353,337.9264L1696.5908,338.84L1696.586,338.841C1696.5726,338.84912,1696.5593,338.8584,1696.546,338.8678L595.9494,1118.9978C595.26135,1119.4855,594.84973,1120.2744,594.8434,1121.1178C594.83704,1121.9612,595.23663,1122.7561,595.91724,1123.2542L1799.8751,2004.3009L1799.8672,2004.295L1799.8844,2004.3077L1799.8875,2004.3099L1801.2599,2005.3192L1801.26,2005.3193L1802.6361,2006.3312L1802.636,2006.3322C1847.2144,2039.1166,1893.3756,2073.498,1911.7264,2119.6538C1912.5469,2121.717,1913.3269,2123.8462,1914.0343,2125.959C1914.0673,2126.0586,1914.1061,2126.156,1914.1506,2126.2507L1914.1316,2126.2517C1930.9017,2176.7944,1914.3308,2239.9204,1877.6907,2281.5356C1846.3335,2317.1501,1800.1276,2337.2637,1754.9348,2337.2637C1747.0114,2337.2637,1739.116,2336.6445,1731.3473,2335.3845C1679.935,2327.045,1634.3568,2290.5417,1590.5416,2255.3694L1590.5414,2255.3704L1589.9999,2254.9348L1589.9839,2254.9358C1589.874,2254.8213,1589.7528,2254.7163,1589.6208,2254.6223L354.5007,1374.0372L354.50266,1374.0382C354.49567,1374.0322,354.48862,1374.0272,354.48157,1374.0223C303.59885,1338.4497,254.07083,1303.914,217.52037,1292.3779L217.5204,1292.3789C208.29547,1289.4663,199.86685,1288.0121,191.9742,1288.0121C170.42592,1288.0121,153.59946,1298.833,135.87265,1318.2592L135.87263,1318.2601C115.80024,1340.2562,95.110405,1372.927,66.3402,1419.9432L66.34019,1419.9434C63.421753,1424.7128,58.931744,1432.0679,55.779503,1437.233L55.779346,1437.2333L55.6251,1437.4861L55.62524,1437.4858L54.703194,1438.9967L54.703144,1438.9968C50.96324,1445.1255,47.789246,1450.3256,43.656853,1457.0787C2.6662102,1524.0656,-52.97569,1613.2998,-108.613235,1702.5265L-108.61323,1702.5275L-108.709564,1702.6808L-108.783905,1702.7979L-108.78398,1702.7988C-151.4633,1768.8254,-193.03224,1833.313,-204.53868,1883.897C-211.20291,1913.195,-207.69415,1937.7925,-198.92284,1959.8545L-198.92282,1959.8555C-192.79723,1975.261,-184.06427,1989.5287,-174.21928,2003.3878L-174.21924,2003.388C-150.3983,2036.9192,-121.58534,2066.006,-64.47704,2078.6426L-64.47707,2078.6436C-34.941113,2085.1785,2.0243225,2087.3296,42.76706,2087.3296C82.412865,2087.3296,125.78135,2085.2905,169.56006,2083.2136L169.56023,2083.2146C169.66747,2083.2087,169.77039,2083.206,169.85962,2083.206L169.86244,2083.207L696.2333,2082.6396L696.3512,2082.6406L696.33997,2082.6404L697.4041,2082.6536L697.4048,2082.6545L698.5516,2082.6675L698.55115,2082.6685C737.99805,2083.1519,779.2345,2083.8896,815.20044,2103.2449L815.2005,2103.2458C843.694,2118.5781,868.75775,2145.4768,880.7988,2175.7622C884.2428,2184.424,886.63824,2193.4055,887.72363,2202.5127L887.72363,2202.513C892.62354,2243.6135,870.70105,2285.4138,832.4775,2308.5127L832.4774,2308.513C794.99225,2331.1665,741.79895,2335.712,690.63196,2340.0293L690.6317,2340.0303L689.1055,2340.1582L689.1039,2340.1584L689.0953,2340.1592L689.09436,2340.1602C688.93335,2340.172,688.74475,2340.18,688.5817,2340.1807L688.58466,2340.1816L-384.05685,2343.292L-384.11652,2343.291L-385.4529,2343.2896L-386.78967,2343.288L-386.78934,2343.289C-493.63965,2343.158,-601.4966,2342.9412,-665.14734,2327.1914C-717.2353,2314.3027,-741.0781,2290.7327,-751.6643,2264.107C-754.2607,2257.5767,-756.0122,2250.9792,-757.2167,2244.4753C-763.3175,2211.529,-755.61536,2179.4365,-728.67224,2126.4683C-701.9215,2073.8767,-655.5649,1999.5344,-609.33923,1925.4418L-609.33795,1925.4397L-608.5742,1924.2168L-608.5747,1924.2175L-608.5735,1924.2156L-608.5731,1924.215L264.20038,527.0529L264.17114,527.0985L264.21072,527.03625C302.71616,464.42102,339.86884,403.71298,344.06848,346.18906C345.6553,324.45734,342.51306,303.1817,334.75266,283.66306C322.1805,252.0419,297.37173,224.7542,260.2324,207.59964L260.23236,207.59962C199.47137,179.53467,106.07809,178.49828,10.433745,177.58582L10.433641,177.58682C10.401047,177.58461,10.36831,177.584,10.335444,177.584L10.333992,177.585L-557.84564,177.89598L-558.0247,177.8943L-559.522,177.86082L-561.038,177.82692L-561.03796,177.82793C-607.7496,176.78046,-656.71936,175.33434,-694.103,149.34715C-715.2805,134.62563,-732.50824,112.24645,-742.25635,87.72802L-742.25635,87.72803C-750.14813,67.8782,-753.2654,46.293945,-749.2824,25.966002C-749.28235,25.965668,-749.2823,25.965336,-749.2822,25.965002L-749.28235,25.966002C-740.328,-19.735735,-696.4067,-56.01453,-633.0853,-70.47894C-605.7177,-76.73052,-574.3611,-78.99375,-540.8277,-78.99375 Z"/>
</g>
<g style="fill:rgb(254,254,254); fill-opacity:1.0; stroke-linejoin: miter">
<path d="M576.7746,1113.6466L576.7746,1113.6466L1687.6096,326.26038C1687.6569,326.22687,1687.7045,326.19382,1687.7523,326.16122L1687.7523,326.16122C1769.4926,270.5526,1848.5994,216.52473,1884.4633,160.43558L1884.4633,160.43558C1919.4235,105.75969,1913.0548,48.679123,1884.0792,3.1611333L1884.0792,3.161138C1860.4662,-33.932693,1822.6553,-62.138268,1773.789,-62.138268L1773.789,-62.138268C1762.243,-62.138268,1749.9711,-60.571777,1736.9963,-57.118656L1736.9963,-57.118652C1667.2822,-38.564888,1579.2513,33.336937,1488.6774,107.587105C1488.6368,107.62038,1488.5956,107.653534,1488.5544,107.68609L1488.5544,107.68609L541.4701,856.81793C541.3317,856.92737,541.19025,857.0327,541.0457,857.13385L541.0457,857.13385C519.97095,871.8847,495.2825,889.5943,473.82254,890.4785L473.82294,890.47845C473.23108,890.50287,472.65613,890.5147,472.06894,890.5147L472.06894,890.5147C450.4937,890.5147,434.24347,874.2076,434.24347,849.45276L434.24347,849.45276C434.24347,847.4013,434.35306,845.30194,434.57413,843.15625L434.57413,843.15625C437.30032,816.6953,457.8153,780.4319,476.51846,747.0163L476.5628,746.93805L823.9825,140.47293L823.86676,140.6812C843.54083,104.13701,861.0394,70.97226,857.23474,37.782017L857.23474,37.782017C853.54474,5.592304,829.12305,-29.160475,769.98157,-45.867157L769.98157,-45.867157C730.47327,-57.02773,675.8721,-59.99128,615.0831,-59.99128L615.0831,-59.99128C583.8165,-59.99128,551.1824,-59.21317,518.4153,-58.43145C518.32544,-58.429306,518.23553,-58.428505,518.1456,-58.429043L518.1456,-58.429043L-396.93707,-63.906063C-397.03616,-63.906654,-397.1352,-63.908875,-397.23422,-63.912727L-397.23364,-63.912704L-397.41638,-63.9198L-397.41696,-63.919823C-433.63486,-65.3284,-469.63388,-66.72502,-503.8982,-66.72502L-503.8982,-66.72502C-550.9644,-66.72502,-594.1446,-64.079605,-629.513,-55.444355L-629.513,-55.44436C-690.94855,-40.44477,-727.0725,-8.004164,-734.1084,28.891523L-734.1084,28.891523C-741.3102,66.657104,-719.1429,112.97861,-685.2615,136.67264L-685.2615,136.67264C-651.6995,160.14326,-606.5871,161.39796,-557.6697,162.44463L-557.868,162.44255L10.363445,162.13054L10.455319,162.13095L10.664769,162.13297L10.664162,162.13297C104.89172,163.03278,202.25185,163.79643,266.71252,193.57047L266.71252,193.57047C332.54443,223.97784,364.08624,284.23535,359.48096,347.31412L359.48096,347.31412C354.94824,409.3991,315.20593,473.61185,277.37418,535.1312L277.34076,535.1852L-595.46686,1932.4025L-595.4642,1932.3982C-642.10016,2007.1478,-688.38495,2081.3508,-714.89795,2133.4744L-714.89795,2133.4744C-741.3445,2185.4673,-747.18506,2213.7751,-742.0218,2241.6619L-742.0218,2241.6619C-736.99536,2268.8098,-721.443,2297.3418,-661.43555,2312.19L-661.43555,2312.19C-599.5341,2327.5066,-492.80008,2327.7048,-384.0971,2327.8376L-384.13437,2327.8376L688.54,2324.7273L687.8054,2324.7593L688.369,2324.7117L688.3694,2324.7117C741.03864,2320.265,790.50574,2315.821,824.4848,2295.2869L824.4848,2295.2869C858.0842,2274.9822,876.48456,2238.7808,872.3788,2204.3423L872.3788,2204.3423C868.2279,2169.5251,840.8818,2134.6143,807.8772,2116.8528L807.8772,2116.8528C775.1465,2099.2388,737.04956,2098.5945,696.1505,2098.093L696.27106,2098.0935L169.8791,2098.66L170.29759,2098.65C126.874374,2100.7095,83.20274,2102.783,42.95182,2102.783L42.95182,2102.783C1.5252914,2102.783,-36.801567,2100.5938,-67.81595,2093.7312L-67.81598,2093.7312C-129.86075,2080.0022,-161.60512,2047.8278,-186.81717,2012.3375L-186.81717,2012.3375C-211.84402,1977.1079,-232.26048,1936.0964,-219.60722,1880.4692L-219.60722,1880.4692C-207.3465,1826.5677,-163.76617,1759.3915,-121.7509,1694.3912L-121.83112,1694.5176L-121.800316,1694.4681L-121.79891,1694.466C-66.12555,1605.1821,-10.489504,1515.9579,30.475489,1449.0127L30.475506,1449.0127C34.61384,1442.2499,38.735,1435.4972,42.585667,1429.1875L42.58566,1429.1875C46.204132,1423.2583,49.76056,1417.4308,53.154087,1411.885L53.15411,1411.8849C81.71106,1365.217,103.184525,1331.1559,124.457405,1307.8429L124.4574,1307.8429C144.12894,1286.2848,164.8539,1272.5581,191.93414,1272.5581L191.93414,1272.5581C201.4674,1272.5581,211.48215,1274.2671,222.17177,1277.641L222.17177,1277.641C261.55054,1290.0698,313.3976,1326.4442,363.33612,1361.3569L363.4043,1361.4052L1598.659,2242.0872C1598.799,2242.1868,1598.936,2242.2908,1599.07,2242.3982L1599.07,2242.3982C1644.1559,2278.5884,1686.7716,2312.498,1733.8217,2320.13L1733.8215,2320.13C1740.7557,2321.2546,1747.8195,2321.8093,1754.9313,2321.8093L1754.9313,2321.8093C1795.6855,2321.8093,1837.6635,2303.6118,1866.092,2271.3235L1866.092,2271.3235C1899.7698,2233.073,1914.2874,2175.4207,1899.3822,2130.8708L1899.3822,2130.8708C1884.3907,2086.063,1839.3809,2052.5383,1790.7317,2016.7588L1790.749,2016.7716L576.6637,1128.3141C574.3183,1126.5978,572.94135,1123.8582,572.9633,1120.9519C572.9853,1118.0457,574.4035,1115.3273,576.7746,1113.6466L576.7746,1113.6466 M587.22784,1128.3939L587.33875,1113.7264L1801.4241,2002.184L1801.4414,2002.1968C1848.572,2036.8594,1899.3411,2073.776,1916.5245,2125.1355L1916.5245,2125.1355C1933.7941,2176.7522,1916.882,2240.992,1879.6592,2283.2688L1879.6592,2283.2688C1847.7495,2319.511,1800.8027,2339.8855,1754.9313,2339.8855L1754.9313,2339.8855C1746.8805,2339.8855,1738.8491,2339.258,1730.9275,2337.9731L1730.9274,2337.9731C1678.245,2329.4277,1631.7643,2291.8213,1587.7545,2256.4949L1588.1654,2256.806L352.91064,1376.1237L352.97882,1376.1719C301.93375,1340.4856,252.80176,1306.2637,216.73106,1294.879L216.73106,1294.879C207.45338,1291.9508,199.28989,1290.6345,191.93414,1290.6345L191.93414,1290.6345C172.08719,1290.6345,155.84239,1300.2656,137.81018,1320.0272L137.81018,1320.0272C117.93621,1341.8071,97.38475,1374.2354,68.572754,1421.32L68.57278,1421.3198C65.188286,1426.8508,61.632793,1432.6769,58.015583,1438.604L58.015575,1438.604C54.20083,1444.8549,50.003815,1451.7317,45.894123,1458.4478L45.894142,1458.4478C4.8855705,1525.4641,-50.80722,1614.7792,-106.46027,1704.0304L-106.45887,1704.0282L-106.48968,1704.0776C-106.51712,1704.1216,-106.54319,1704.1626,-106.5699,1704.204L-106.5699,1704.204C-149.36862,1770.4163,-190.60191,1834.4523,-201.98116,1884.4785L-201.98116,1884.4785C-212.96777,1932.7787,-195.8502,1968.4094,-172.08078,2001.869L-172.08078,2001.869C-148.49574,2035.069,-120.18304,2063.6301,-63.910583,2076.0818L-63.910618,2076.0818C-34.852844,2082.5115,1.8975525,2084.7068,42.95182,2084.7068L42.95182,2084.7068C82.69217,2084.7068,125.921875,2082.658,169.44118,2080.5938C169.58057,2080.5872,169.72012,2080.584,169.85966,2080.5837L169.85966,2080.5837L696.25165,2080.0173L696.3722,2080.0178C736.3526,2080.508,779.1316,2080.8555,816.44336,2100.9348L816.44336,2100.9348C853.47955,2120.866,885.3383,2160.3494,890.328,2202.2021L890.328,2202.2021C895.36304,2244.435,872.8408,2287.185,833.83405,2310.7576L833.83405,2310.7576C795.4678,2333.9429,741.13556,2338.3972,689.89014,2342.7239L689.8905,2342.7239L689.3269,2342.7715C689.08234,2342.792,688.8374,2342.8027,688.59235,2342.8035L688.59235,2342.8035L-384.08194,2345.9138L-384.1192,2345.9138C-491.67523,2345.7825,-601.19775,2345.7166,-665.77734,2329.7373L-665.77734,2329.7373C-732.25006,2313.2896,-753.40076,2279.4941,-759.7961,2244.953L-759.7961,2244.953C-766.05475,2211.1497,-758.036,2178.4116,-731.00977,2125.279L-731.00977,2125.279C-704.0522,2072.2815,-657.24835,1997.278,-610.8005,1922.8298L-610.7978,1922.8256L262.00983,525.6083L261.9764,525.66223C300.59814,462.85822,337.30945,402.74738,341.45264,345.9979L341.45264,345.9979C345.52325,290.24216,317.96335,237.15436,259.1327,209.9808L259.1327,209.9808C199.02252,182.21625,106.34729,181.12381,10.491554,180.20847L10.490947,180.20847L10.281497,180.20645L10.373371,180.20686L-557.8581,180.51888C-557.92426,180.5189,-557.99023,180.51822,-558.0564,180.5168L-558.0564,180.5168C-605.4822,179.50206,-656.7128,178.69531,-695.62085,151.48605L-695.62085,151.48605C-734.2094,124.50021,-760.64014,71.52304,-751.86475,25.50545L-751.86475,25.50545C-742.92346,-21.382227,-698.4958,-57.209396,-633.8005,-73.00486L-633.8005,-73.00486C-596.2841,-82.164536,-551.3606,-84.801346,-503.8982,-84.801346L-503.8982,-84.801346C-469.22046,-84.801346,-432.8617,-83.38832,-396.71445,-81.98249L-396.71503,-81.98251L-396.5323,-81.97542L-396.82886,-81.982056L518.2538,-76.505035L517.98413,-76.50263C550.70856,-77.28333,583.5626,-78.067604,615.0831,-78.067604L615.0831,-78.067604C675.88934,-78.067604,732.7399,-75.17114,774.8956,-63.262726L774.8956,-63.262726C839.5854,-44.98874,870.50323,-5.19191,875.1935,35.723354L875.1935,35.723354C879.76904,75.63842,858.6886,114.13344,839.78314,149.24995C839.7455,149.31989,839.7069,149.38931,839.6674,149.45822L839.6674,149.45822L492.24774,755.9233L492.29208,755.84503C472.6404,790.9553,454.8002,823.21893,452.55527,845.0088L452.55527,845.0088C452.395,846.56445,452.31976,848.04535,452.31976,849.45276L452.31976,849.45276C452.31976,865.1776,461.40442,872.4384,472.06894,872.4384L472.06894,872.4384C472.406,872.4384,472.73465,872.4317,473.07794,872.41754L473.07834,872.4175C487.94876,871.80475,507.50723,858.54425,530.68036,842.32465L530.256,842.64056L1477.3403,93.508736L1477.2174,93.60772C1566.2858,20.591743,1657.897,-54.772617,1732.3474,-74.586914L1732.3474,-74.586914C1746.7584,-78.42227,1760.5923,-80.21459,1773.789,-80.21459L1773.789,-80.21459C1830.4323,-80.21459,1873.3566,-47.344486,1899.328,-6.5459037L1899.328,-6.545899C1931.5646,44.094715,1938.9335,108.8026,1899.6925,170.17331L1899.6925,170.17331C1861.3551,230.13087,1778.3206,286.4096,1697.92,341.10684L1698.0627,341.0077L587.22784,1128.3939 Z"/>
</g>
<g style="fill:rgb(0,0,0); fill-opacity:1.0; stroke-linejoin: miter">
<path d="M1824.0791,-1953.3291L1824.0791,-1953.3291L1824.0757,-1953.3208C1822.0493,-1948.7588,1816.7085,-1946.7041,1812.1465,-1948.7295C1807.5845,-1950.7559,1805.5293,-1956.0967,1807.5552,-1960.6587L1807.5552,-1960.6587L1807.5591,-1960.667C1809.5854,-1965.229,1814.9263,-1967.2842,1819.4878,-1965.2583C1824.0498,-1963.2319,1826.105,-1957.8911,1824.0791,-1953.3291 Z"/>
</g>
<g style="fill:rgb(233,26,148); fill-opacity:1.0; stroke-linejoin: miter">
<path d="M3122.0051,-1275.7656L3122.0051,-1275.7656L3122.0051,-1275.7644C3122.0051,-1273.9072,3120.4995,-1272.4016,3118.6423,-1272.4016C3116.7852,-1272.4016,3115.2795,-1273.9072,3115.2795,-1275.7644L3115.2795,-1275.7644L3115.2795,-1275.7656C3115.2795,-1277.6228,3116.7852,-1279.1284,3118.6423,-1279.1284C3120.4995,-1279.1284,3122.0051,-1277.6228,3122.0051,-1275.7656 Z"/>
</g>
<g style="fill:rgb(254,254,254); fill-opacity:1.0; stroke-linejoin: miter">
<path d="M860.64526,-1514.2268L860.64526,-1514.2268L860.64575,-1514.221C860.7366,-1512.366,859.3064,-1510.7888,857.4509,-1510.698C855.59595,-1510.6072,854.0183,-1512.0374,853.9275,-1513.8923L853.9275,-1513.8923L853.9275,-1513.8982C853.8367,-1515.7532,855.26685,-1517.3303,857.1218,-1517.4211C858.9773,-1517.512,860.55493,-1516.0818,860.64526,-1514.2268 Z"/>
</g>
</g>
</svg>