<?xml version="1.0" encoding="UTF-8"?><svg id="Calque_2" xmlns="http://www.w3.org/2000/svg" viewBox="0 0 851.9 776.34"><defs><style>.cls-1{fill:#fff;}</style></defs><g id="Layer_1"><path class="cls-1" d="M833.1,632.38c-11.5-14.41-26.21-25.3-40.43-35.84-96.4-71.42-193.67-142.1-289.13-210.11,20.15-14.35,40.3-28.69,60.45-43.02,15.57-11.08,31.15-22.16,46.71-33.24,18.88-13.45,37.78-26.88,56.67-40.31,48.06-34.17,97.75-69.5,146.46-104.49,28.12-20.21,40.77-48.29,37.58-83.46-1.99-21.9-11.52-40.93-28.32-56.56-16.81-15.63-38.63-24.24-61.44-24.24-18.93,0-37.17,5.87-52.77,16.97-27.02,19.23-142.62,112.27-201.17,159.56l40.71-57.28,.1-.17c8.6-13.94,12.18-29.27,10.65-45.54-1.75-18.57-9.76-34.69-23.8-47.92C516.65,9.06,494.12,.09,468.42,.06,402.86,0,336.79,0,280.81,0h-114.68c-25.14,0-50.27,0-75.41,0-7.53,0-14.23,.69-20.49,2.1C46.08,7.56,27.28,19.65,14.37,38.05,3.39,53.68-.89,71.27,1.65,90.33c2.39,17.91,10.71,33.41,24.71,46.07,17.83,16.13,39.38,24.35,64.04,24.44,26.8,.1,56.3,.14,92.82,.14,18.13,0,36.27,0,54.4-.02,18.13,0,36.26-.02,54.39-.02h8.08c1.91,0,3.61,.07,5.21,.21,1.91,.16,3.69,.79,5.44,1.91,3.01,1.94,3.13,2.45,1.25,5.49l-42.96,69.43c-22.81,36.87-45.63,73.73-68.43,110.6l-4.23,6.83c-44.23,71.51-88.47,143.01-132.69,214.52l-10.37,16.76c-14.11,22.8-28.21,45.6-42.31,68.41-9.62,15.59-12.96,32.67-9.91,50.75,3.76,22.28,15.54,40.39,35.03,53.8,16.04,11.05,34.58,16.66,55.11,16.68,49.91,0,99.82,0,149.73,0,75.08,0,150.17,0,225.25,.02h0c7.9,0,14.97-.69,21.61-2.11,20.64-4.4,37.55-13.94,50.24-28.37,17.03-19.34,22.93-41.66,17.54-66.33-3.81-17.48-13.56-32.36-28.97-44.21-17.11-13.17-37.13-19.84-59.51-19.84-69.6-.01-139.19-.01-208.78-.01-.34,0-.68,0-1.02,0-.28,0-.56,0-.84,0-.26,0-.53,0-.85-.02-4.15-.22-6.92-1.22-8.96-3.26-1.1-1.1-1.24-1.6-1.25-1.6,0-.02,.02-.52,.81-1.81,3.08-5.02,6.18-10.02,9.29-15.02l1.97-3.17c18.38-29.71,36.76-59.39,55.14-89.09,3.38-5.46,9.23-8.71,15.65-8.71,3.41,0,6.76,.96,9.68,2.77l7.72,4.8c22.25,13.82,45.26,28.11,58.83,37.78l48.05,34.22c26.07,18.57,52.15,37.13,78.22,55.71,29.38,20.93,59.07,43.38,87.79,65.09,28.52,21.56,58,43.85,87.24,64.7,17.18,12.25,35.36,18.46,54.03,18.46,4.74,0,9.58-.4,14.41-1.19,31.52-5.16,55.12-22.76,68.25-50.89,14.27-30.58,11.02-65.33-8.5-90.69-.3-.39-.61-.79-.93-1.18Z"/></g></svg>