<?xml version="1.0" encoding="UTF-8"?><svg id="Calque_2" xmlns="http://www.w3.org/2000/svg" viewBox="0 0 96.46 118.48"><defs><style>.cls-1{fill:#fff;}</style></defs><g id="Calque_2-2"><g><path class="cls-1" d="M0,66.77c0-1.69,0-3.38,0-5.06,.03-.2,.07-.4,.1-.6,.2-1.72,.32-3.45,.59-5.15,.84-5.24,2.68-10.1,5.72-14.47,3.78-5.44,8.78-9.3,15.13-11.31,5.57-1.77,11.11-1.71,16.59,.44,2.2,.86,4.42,1.68,6.62,2.55,2.78,1.1,5.52,1.13,8.31,0,2.3-.93,4.62-1.8,6.95-2.65,2.95-1.07,5.98-1.84,9.12-1.91,6.95-.14,13.33,1.6,18.86,5.98,2.06,1.63,3.83,3.54,5.34,5.73-.92,.68-1.84,1.31-2.7,2.01-5.72,4.67-9.28,10.58-9.95,18.01-.65,7.21,1.13,13.73,5.93,19.28,2.73,3.16,5.99,5.63,9.85,7.26v.14c-.09,.23-.17,.47-.27,.7-.97,2.43-1.85,4.89-2.92,7.27-1.78,3.95-4.1,7.6-6.64,11.11-2.31,3.17-4.67,6.29-7.74,8.78-3.83,3.11-8.17,4.18-12.93,2.94-2.27-.59-4.46-1.53-6.65-2.43-5.9-2.41-11.79-2.34-17.69-.03-2.28,.89-4.55,1.87-6.9,2.56-2.52,.74-5.12,.76-7.67-.1-2.61-.87-4.73-2.5-6.66-4.4-2.51-2.47-4.59-5.29-6.67-8.11-2.48-3.36-4.65-6.9-6.45-10.67-1.67-3.47-3.06-7.05-4.19-10.73-1.27-4.16-2.2-8.41-2.69-12.74-.17-1.47-.26-2.94-.39-4.41Z"/><path class="cls-1" d="M71.7,0c.58,3.18,.07,6.28-.86,9.3-1.42,4.6-3.84,8.64-7.43,11.89-3.71,3.37-7.98,5.61-13.05,6.11-.34,.03-.68,.05-1.02,.03-1.41-.07-1.51-.16-1.58-1.58-.12-2.58,.32-5.09,1.16-7.51,1.58-4.55,4.11-8.51,7.76-11.68,3.91-3.39,8.36-5.71,13.54-6.45,.08-.01,.16-.07,.24-.1h1.23Z"/></g></g></svg>