<svg xmlns="http://www.w3.org/2000/svg" xmlns:xlink="http://www.w3.org/1999/xlink" width="544.186" height="451.974" viewBox="0 0 544.186 451.974">
  <defs>
    <linearGradient id="linear-gradient" x1="0.043" y1="0.068" x2="0.974" y2="0.923" gradientUnits="objectBoundingBox">
      <stop offset="0" stop-color="#f24c57"/>
      <stop offset="1" stop-color="#1800bc"/>
    </linearGradient>
  </defs>
  <path id="quote" d="M418.647,203.14a126.4,126.4,0,0,0-18.057,1.445A162.517,162.517,0,0,1,483.473,72.223c15.349-8.668,32.684-22.211,22.572-45.144A33.948,33.948,0,0,0,460.179,6.855L456.387,8.3c-98.233,36.657-182.2,140.668-164.142,321.242,6.681,72.23,56.52,126.4,126.4,126.4a126.4,126.4,0,1,0,0-252.8Zm-288.919,0a126.406,126.406,0,0,0-18.057,1.445A162.517,162.517,0,0,1,194.554,72.223c15.349-8.668,32.684-22.211,22.572-45.144A33.948,33.948,0,0,0,171.26,6.855L167.468,8.3C69.235,44.956-14.732,148.967,3.325,329.542c6.681,72.23,56.52,126.4,126.4,126.4a126.4,126.4,0,1,0,0-252.8Z" transform="translate(-0.864 -3.97)" fill="url(#linear-gradient)"/>
</svg>
